<svg width="180" height="53" viewBox="0 0 180 53" fill="none" xmlns="http://www.w3.org/2000/svg">
<path fill-rule="evenodd" clip-rule="evenodd" d="M22.6467 43.571V52.5622L0 45.6733V6.7603L22.6467 0V5.83365L37.3039 11.1496L37.289 40.7894L22.6467 46.2306V43.571ZM22.6467 36.3688V43.571L35.3885 38.9756V13.0507L22.6467 8.54931V32.7693H20.4528V3.456L2.39176 8.54931V44.0244L20.461 49.3634V36.3671L22.6467 36.3688Z" fill="white"/>
<path fill-rule="evenodd" clip-rule="evenodd" d="M3.35767 9.42156L19.4851 4.93502V48.0048L3.35767 43.3665V9.42156Z" fill="#5BC3CF"/>
<path fill-rule="evenodd" clip-rule="evenodd" d="M34.6583 13.6261L23.6292 9.85844V42.2716L34.6583 38.5848V13.6261Z" fill="#CDCDCE"/>
<path fill-rule="evenodd" clip-rule="evenodd" d="M17.5627 28.4031C17.7509 28.4035 17.935 28.3479 18.0916 28.2436C18.2482 28.1393 18.3704 27.9908 18.4426 27.817C18.5149 27.6432 18.5339 27.4518 18.4974 27.2672C18.4609 27.0825 18.3704 26.9128 18.2375 26.7796C18.1045 26.6464 17.9351 26.5556 17.7505 26.5188C17.566 26.4819 17.3747 26.5007 17.2008 26.5726C17.0269 26.6446 16.8783 26.7665 16.7737 26.923C16.6691 27.0795 16.6133 27.2635 16.6133 27.4518C16.6137 27.7037 16.7138 27.9452 16.8918 28.1234C17.0697 28.3017 17.3109 28.4023 17.5627 28.4031Z" fill="white"/>
<path fill-rule="evenodd" clip-rule="evenodd" d="M33.4607 27.0181C33.58 27.0181 33.6967 26.9827 33.7959 26.9164C33.8951 26.8501 33.9724 26.7558 34.0181 26.6455C34.0638 26.5353 34.0757 26.4139 34.0524 26.2969C34.0291 26.1798 33.9717 26.0723 33.8873 25.9879C33.8029 25.9035 33.6954 25.846 33.5784 25.8227C33.4614 25.7994 33.3401 25.8114 33.2298 25.857C33.1196 25.9027 33.0254 25.9801 32.9591 26.0793C32.8928 26.1786 32.8574 26.2952 32.8574 26.4146C32.8574 26.5746 32.921 26.7281 33.0341 26.8413C33.1473 26.9545 33.3007 27.0181 33.4607 27.0181Z" fill="white"/>
<path fill-rule="evenodd" clip-rule="evenodd" d="M68.9726 18.4291L65.8555 30.3009L62.4698 18.4291H59.5061L56.1204 30.3009L53.0033 18.4291H49.377L54.2198 34.1295H57.8742L60.9896 23.4318L64.105 34.1295H67.761L72.6039 18.4291H68.9726ZM74.511 18.4291V34.1295H85.6984V31.1616H77.8737V27.6693H84.8907V24.7311H77.8737V21.3905H85.5632V18.4225L74.511 18.4291ZM87.6715 22.5793C87.6715 28.1409 96.2594 27.0411 96.2594 29.9794C96.2594 31.1006 95.1385 31.4831 93.322 31.4831C91.3459 31.4882 89.412 30.9107 87.7621 29.8227V33.0297C89.3759 33.9267 91.3885 34.4428 93.5676 34.4428C96.8643 34.4428 99.6896 33.3447 99.6896 29.826C99.6896 24.2414 91.1017 25.2504 91.1017 22.5364C91.1017 21.5735 91.9539 21.1019 93.6583 21.0788C95.4072 21.0574 97.1775 21.5273 98.5011 22.4705V19.3261C97.1561 18.5643 95.272 18.1159 93.411 18.1159C90.3171 18.1159 87.6715 19.5504 87.6715 22.5793ZM100.364 18.4291V21.4581H105.184V34.1295H108.525V21.4581H113.345V18.4291H100.364ZM114.848 22.1753C114.848 27.6693 124.398 25.7632 124.398 30.4064C124.398 32.4246 122.404 33.1204 120.095 33.1204C118.244 33.1315 116.424 32.6513 114.82 31.7288V33.0479C116.467 33.9296 118.31 34.3832 120.179 34.367C123.071 34.39 125.739 33.2688 125.739 30.3075C125.739 24.6569 116.188 26.5151 116.188 22.1226C116.188 20.1934 117.981 19.43 120.111 19.43C121.68 19.43 123.429 19.857 124.641 20.6188V19.2734C123.429 18.5792 121.703 18.1752 120.025 18.1752C117.357 18.1752 114.846 19.43 114.846 22.1671L114.848 22.1753ZM126.759 18.4291V19.7086H132.498V34.1295H133.817V19.7086H139.557V18.4291H126.759ZM147.767 34.1295V28.0057L153.934 18.4291H152.45L147.091 26.7954L141.732 18.4291H140.249L146.414 28.0057V34.1295H147.767ZM156.49 18.4291V34.1295H166.893V32.85H157.812V18.4291H156.49ZM169.426 18.4291V34.1295H180.001V32.85H170.74V26.863H179.176V25.5835H170.745V19.7086H179.849V18.4291H169.426Z" fill="white"/>
</svg>
