<svg width="18" height="16" viewBox="0 0 18 16" fill="none" xmlns="http://www.w3.org/2000/svg">
<path fill-rule="evenodd" clip-rule="evenodd" d="M-3.43323e-05 8C-3.43323e-05 8.30305 0.118479 8.59369 0.329434 8.80798C0.540389 9.02226 0.826505 9.14265 1.12484 9.14265L14.1576 9.14265L9.32742 14.0469C9.1162 14.2615 8.99754 14.5525 8.99754 14.8559C8.99754 15.1593 9.1162 15.4503 9.32742 15.6649C9.53864 15.8795 9.82512 16 10.1238 16C10.4225 16 10.709 15.8795 10.9202 15.6649L17.6695 8.809C17.7742 8.70285 17.8574 8.57676 17.9141 8.43794C17.9708 8.29912 18 8.1503 18 8C18 7.8497 17.9708 7.70088 17.9141 7.56206C17.8574 7.42324 17.7742 7.29714 17.6695 7.191L10.9202 0.335097C10.709 0.120537 10.4225 -1.26265e-07 10.1238 -1.26265e-07C9.82512 -1.26265e-07 9.53864 0.120537 9.32742 0.335097C9.1162 0.549656 8.99754 0.840661 8.99754 1.14409C8.99754 1.44753 9.1162 1.73853 9.32742 1.95309L14.1576 6.85735L1.12484 6.85735C0.826505 6.85735 0.540389 6.97773 0.329434 7.19202C0.118479 7.40631 -3.43323e-05 7.69695 -3.43323e-05 8Z" fill="#5BC3CF" fill-opacity="0.8"/>
</svg>
