<svg width="18" height="16" viewBox="0 0 18 16" fill="none" xmlns="http://www.w3.org/2000/svg">
<path fill-rule="evenodd" clip-rule="evenodd" d="M18 8C18 7.69695 17.8815 7.40631 17.6706 7.19202C17.4596 6.97774 17.1735 6.85735 16.8752 6.85735H3.84237L8.67258 1.95309C8.8838 1.73853 9.00246 1.44753 9.00246 1.14409C9.00246 0.840662 8.8838 0.549657 8.67258 0.335098C8.46136 0.120538 8.17488 0 7.87617 0C7.57745 0 7.29098 0.120538 7.07975 0.335098L0.330508 7.191C0.225752 7.29715 0.142641 7.42324 0.0859327 7.56206C0.0292245 7.70088 3.43184e-05 7.8497 3.43184e-05 8C3.43184e-05 8.1503 0.0292245 8.29912 0.0859327 8.43794C0.142641 8.57676 0.225752 8.70286 0.330508 8.809L7.07975 15.6649C7.29098 15.8795 7.57745 16 7.87617 16C8.17488 16 8.46136 15.8795 8.67258 15.6649C8.8838 15.4503 9.00246 15.1593 9.00246 14.8559C9.00246 14.5525 8.8838 14.2615 8.67258 14.0469L3.84237 9.14265H16.8752C17.1735 9.14265 17.4596 9.02227 17.6706 8.80798C17.8815 8.59369 18 8.30305 18 8Z" fill="#5BC3CF" fill-opacity="0.8"/>
</svg>
