<svg width="28" height="28" viewBox="0 0 28 28" fill="none" xmlns="http://www.w3.org/2000/svg">
<path d="M1 1.5H5.72727L8.89454 17.4405C9.00262 17.9886 9.29862 18.4809 9.73074 18.8313C10.1629 19.1817 10.7036 19.3678 11.2582 19.3571H22.7455C23.3001 19.3678 23.8408 19.1817 24.2729 18.8313C24.705 18.4809 25.001 17.9886 25.1091 17.4405L27 7.45238H6.90909M11.6364 25.3095C11.6364 25.967 11.1072 26.5 10.4545 26.5C9.80184 26.5 9.27273 25.967 9.27273 25.3095C9.27273 24.652 9.80184 24.119 10.4545 24.119C11.1072 24.119 11.6364 24.652 11.6364 25.3095ZM24.6364 25.3095C24.6364 25.967 24.1072 26.5 23.4545 26.5C22.8018 26.5 22.2727 25.967 22.2727 25.3095C22.2727 24.652 22.8018 24.119 23.4545 24.119C24.1072 24.119 24.6364 24.652 24.6364 25.3095Z" stroke="white" stroke-width="2" stroke-linecap="round" stroke-linejoin="round"/>
</svg>
