<svg width="20" height="18" viewBox="0 0 20 18" fill="none" xmlns="http://www.w3.org/2000/svg">
<path d="M18.4578 1.52426C17.9691 1.04103 17.3889 0.65769 16.7503 0.396152C16.1117 0.134614 15.4272 0 14.7359 0C14.0446 0 13.3601 0.134614 12.7215 0.396152C12.0829 0.65769 11.5026 1.04103 11.0139 1.52426L9.99974 2.52668L8.98554 1.52426C7.99842 0.548618 6.6596 0.000505711 5.26361 0.000505721C3.86761 0.000505732 2.52879 0.548618 1.54168 1.52426C0.554557 2.49991 1.0401e-08 3.82317 0 5.20294C-1.0401e-08 6.58271 0.554557 7.90597 1.54168 8.88161L2.55588 9.88403L9.99974 17.2414L17.4436 9.88403L18.4578 8.88161C18.9467 8.3986 19.3346 7.82512 19.5992 7.19392C19.8638 6.56272 20 5.88618 20 5.20294C20 4.5197 19.8638 3.84316 19.5992 3.21196C19.3346 2.58076 18.9467 2.00727 18.4578 1.52426Z" fill="#5BC3CF"/>
</svg>
