<svg width="16" height="20" viewBox="0 0 16 20" fill="none" xmlns="http://www.w3.org/2000/svg">
<path d="M7.26605 19.9751H0.807339V9.70149H7.26605V19.9751ZM8.73394 9.70149V20H15.1927V9.70149H8.73394ZM7.21712 5.97015H0V8.95522H7.21712V5.97015ZM8.78287 5.97015V8.95522H16V5.97015H8.78287ZM8.4893 4.92537C8.58715 5.04975 8.70948 5.12438 8.85627 5.14925C8.88073 5.14925 8.9052 5.14925 8.92966 5.14925H8.95413H9.02752H9.14985H9.39449C9.737 5.14925 10.0795 5.12438 10.3976 5.0995C11.0826 5.04975 11.7431 4.95025 12.4281 4.77612C12.7706 4.67662 13.1131 4.57711 13.4312 4.42786C13.7737 4.27861 14.0917 4.10448 14.4098 3.85572C14.581 3.73134 14.7278 3.58209 14.8746 3.40796C15.0214 3.23383 15.1437 3.00995 15.2171 2.73632C15.2905 2.48756 15.315 2.16418 15.2416 1.89055C15.1927 1.61692 15.0703 1.39303 14.9235 1.19403C14.7768 0.995025 14.6544 0.845771 14.4832 0.696517C14.3364 0.572139 14.1651 0.422885 13.9694 0.323383C13.578 0.0995023 13.1376 0 12.6972 0C12.2569 0 11.8654 0.124378 11.4985 0.273631C11.1315 0.422885 10.8135 0.646766 10.5443 0.870647C9.95719 1.34328 9.51682 1.89055 9.12538 2.48756C8.92966 2.78607 8.75841 3.10945 8.63608 3.43284C8.4893 3.75622 8.39144 4.10448 8.34251 4.47761C8.34251 4.65174 8.39144 4.801 8.4893 4.92537ZM8.85627 4.57711C9.00306 3.9801 9.34556 3.43284 9.76147 2.98507C10.1774 2.51244 10.6667 2.11443 11.1804 1.81592C11.6942 1.51741 12.2324 1.34328 12.6972 1.39303C12.9174 1.41791 13.1376 1.46766 13.3089 1.59204C13.4067 1.64179 13.4801 1.71642 13.578 1.81592C13.6514 1.89055 13.7492 1.99005 13.7982 2.06468C13.8471 2.1393 13.896 2.21393 13.896 2.26368C13.9205 2.31343 13.9205 2.36318 13.896 2.41294C13.8716 2.53731 13.7492 2.73632 13.578 2.91045C13.211 3.28358 12.6483 3.58209 12.0856 3.85572C11.5229 4.10448 10.9113 4.30348 10.2752 4.45274C9.95718 4.52736 9.63914 4.57711 9.3211 4.62687L9.07645 4.65174L8.88073 4.67662C8.85627 4.67662 8.8318 4.67662 8.8318 4.65174C8.85627 4.60199 8.85627 4.57711 8.85627 4.57711ZM7.95107 4.47761C7.90214 4.12935 7.80428 3.78109 7.65749 3.43284C7.5107 3.10945 7.36391 2.78607 7.16819 2.48756C6.77676 1.89055 6.33639 1.34328 5.74923 0.870647C5.45566 0.646766 5.13761 0.422885 4.77064 0.273631C4.40367 0.124378 4.01223 0 3.57187 0C3.1315 0 2.69113 0.0995023 2.29969 0.323383C2.10397 0.422885 1.93272 0.572139 1.78593 0.696517C1.61468 0.845771 1.49235 0.995025 1.34556 1.19403C1.22324 1.39303 1.10092 1.61692 1.02752 1.89055C0.978593 2.16418 0.978593 2.46269 1.05199 2.73632C1.12538 3.00995 1.24771 3.20896 1.3945 3.40796C1.54128 3.58209 1.68807 3.73134 1.85933 3.85572C2.17737 4.10448 2.49541 4.27861 2.83792 4.42786C3.18043 4.57711 3.49847 4.67662 3.84098 4.77612C4.52599 4.95025 5.18654 5.04975 5.87156 5.0995C6.21407 5.12438 6.55657 5.12438 6.87462 5.14925H7.11927H7.24159H7.31498H7.33945C7.36391 5.14925 7.38838 5.14925 7.41284 5.14925C7.55963 5.12438 7.68196 5.04975 7.77982 4.92537C7.9266 4.801 7.97553 4.65174 7.95107 4.47761ZM7.46177 4.57711C7.46177 4.60199 7.46177 4.60199 7.46177 4.62687C7.43731 4.65174 7.41284 4.65174 7.41284 4.65174L7.21712 4.62687L6.97248 4.60199C6.65443 4.55224 6.33639 4.50249 6.01835 4.42786C5.38226 4.27861 4.77064 4.0796 4.20795 3.83085C3.64526 3.58209 3.10703 3.25871 2.7156 2.88557C2.51988 2.71144 2.39755 2.51244 2.39755 2.38806C2.39755 2.33831 2.39755 2.28856 2.39755 2.23881C2.42202 2.18905 2.44648 2.11443 2.49541 2.0398C2.54434 1.96517 2.6422 1.86567 2.7156 1.79105C2.81346 1.69154 2.88685 1.64179 2.98471 1.56716C3.18043 1.46766 3.37615 1.39303 3.59633 1.36816C4.06116 1.34328 4.59939 1.51741 5.11315 1.79105C5.62691 2.08955 6.11621 2.48756 6.53211 2.9602C6.94801 3.43284 7.31498 3.9801 7.46177 4.57711Z" fill="#FF2C2B"/>
</svg>
