<svg width="31" height="27" viewBox="0 0 31 27" fill="none" xmlns="http://www.w3.org/2000/svg">
<path d="M27.7638 3.21018C27.0552 2.50949 26.2139 1.95365 25.2879 1.57442C24.3619 1.19519 23.3694 1 22.367 1C21.3647 1 20.3722 1.19519 19.4462 1.57442C18.5202 1.95365 17.6788 2.50949 16.9702 3.21018L15.4996 4.66368L14.029 3.21018C12.5977 1.7955 10.6564 1.00073 8.63223 1.00073C6.60804 1.00073 4.66675 1.7955 3.23543 3.21018C1.80411 4.62487 1 6.54359 1 8.54426C1 10.5449 1.80411 12.4637 3.23543 13.8783L4.70602 15.3318L15.4996 26L26.2932 15.3318L27.7638 13.8783C28.4728 13.178 29.0351 12.3464 29.4188 11.4312C29.8025 10.5159 30 9.53496 30 8.54426C30 7.55356 29.8025 6.57258 29.4188 5.65734C29.0351 4.7421 28.4728 3.91054 27.7638 3.21018V3.21018Z" stroke="white" stroke-width="2" stroke-linecap="round" stroke-linejoin="round"/>
</svg>
