<svg width="21" height="27" viewBox="0 0 21 27" fill="none" xmlns="http://www.w3.org/2000/svg">
<path d="M20 11.3182C20 18.9545 10.5 25.5 10.5 25.5C10.5 25.5 1 18.9545 1 11.3182C1 8.71424 2.00089 6.21694 3.78249 4.37568C5.56408 2.53441 7.98044 1.5 10.5 1.5C13.0196 1.5 15.4359 2.53441 17.2175 4.37568C18.9991 6.21694 20 8.71424 20 11.3182Z" stroke="white" stroke-width="1.5" stroke-linecap="round" stroke-linejoin="round"/>
<path d="M10.5 14.5909C12.2489 14.5909 13.6667 13.1257 13.6667 11.3182C13.6667 9.5107 12.2489 8.04545 10.5 8.04545C8.7511 8.04545 7.33333 9.5107 7.33333 11.3182C7.33333 13.1257 8.7511 14.5909 10.5 14.5909Z" stroke="white" stroke-width="1.5" stroke-linecap="round" stroke-linejoin="round"/>
</svg>
