<svg width="26" height="26" viewBox="0 0 26 26" fill="none" xmlns="http://www.w3.org/2000/svg">
<path fill-rule="evenodd" clip-rule="evenodd" d="M2.36914 12.1226C2.36914 6.73279 6.65588 2.38694 11.9152 2.38694C17.1744 2.38694 21.4612 6.73279 21.4612 12.1226C21.4612 17.5124 17.1744 21.8583 11.9152 21.8583C6.65588 21.8583 2.36914 17.5124 2.36914 12.1226ZM11.9152 0.88694C5.80176 0.88694 0.869141 5.93029 0.869141 12.1226C0.869141 18.3149 5.80176 23.3583 11.9152 23.3583C14.8136 23.3583 17.4467 22.2246 19.4145 20.3722L24.7 25.7552C24.9902 26.0507 25.4651 26.0551 25.7606 25.7649C26.0562 25.4746 26.0605 24.9998 25.7703 24.7042L20.4365 19.2721C22.0144 17.3278 22.9612 14.8355 22.9612 12.1226C22.9612 5.93029 18.0285 0.88694 11.9152 0.88694Z" fill="white"/>
</svg>
